<?xml version="1.0" encoding="UTF-8" standalone="no"?>
<svg
   role="img"
   viewBox="0 0 24 24"
   version="1.1"
   id="svg6"
   sodipodi:docname="elastic.svg"
   inkscape:version="1.1.2 (08b2f3d93c, 2022-04-05)"
   xmlns:inkscape="http://www.inkscape.org/namespaces/inkscape"
   xmlns:sodipodi="http://sodipodi.sourceforge.net/DTD/sodipodi-0.dtd"
   xmlns="http://www.w3.org/2000/svg"
   xmlns:svg="http://www.w3.org/2000/svg"
   xmlns:rdf="http://www.w3.org/1999/02/22-rdf-syntax-ns#"
   xmlns:cc="http://creativecommons.org/ns#"
   xmlns:dc="http://purl.org/dc/elements/1.1/">
  <defs
     id="defs10" />
  <sodipodi:namedview
     id="namedview8"
     pagecolor="#ffffff"
     bordercolor="#666666"
     borderopacity="1.0"
     inkscape:pageshadow="2"
     inkscape:pageopacity="0.0"
     inkscape:pagecheckerboard="0"
     showgrid="false"
     inkscape:zoom="29.958333"
     inkscape:cx="11.98331"
     inkscape:cy="12"
     inkscape:window-width="2192"
     inkscape:window-height="1154"
     inkscape:window-x="1920"
     inkscape:window-y="0"
     inkscape:window-maximized="1"
     inkscape:current-layer="svg6" />
  <title
     id="title2">Elastic</title>
  <path
     d="M20.345 16.33l-3.959-.926-1.05-2.01 5.177-4.535a3.962 3.962 0 012.559 3.702 4.006 4.006 0 01-2.727 3.77m-2.976 4.68c-.616 0-1.22-.207-1.714-.587l.782-4.077 3.596.841c.115.31.172.642.172.987a2.839 2.839 0 01-2.836 2.836m-2.637-.586a5.92 5.92 0 01-4.908 2.6A5.947 5.947 0 014 15.905l5.167-4.67 5.272 2.403 1.167 2.23zM.928 11.443a4.007 4.007 0 012.726-3.77l3.95.933.927 1.98-5.05 4.565a3.97 3.97 0 01-2.553-3.708m5.703-8.45a2.841 2.841 0 011.723.58l-.789 4.092-3.598-.85a2.842 2.842 0 01-.172-.986A2.84 2.84 0 016.63 2.992m2.66.59A5.92 5.92 0 0120.1 6.93c0 .4-.038.781-.114 1.164l-5.299 4.643-5.251-2.394-1.026-2.19zM24 12.571a4.723 4.723 0 00-3.124-4.454 6.695 6.695 0 00.126-1.29A6.789 6.789 0 0014.22.047 6.769 6.769 0 008.727 2.86a3.586 3.586 0 00-2.204-.754A3.604 3.604 0 003.15 6.959 4.786 4.786 0 000 11.431 4.727 4.727 0 003.139 15.9a6.876 6.876 0 00-.124 1.289 6.773 6.773 0 006.765 6.765c2.19 0 4.22-1.052 5.49-2.824a3.568 3.568 0 002.207.769 3.603 3.603 0 003.374-4.854A4.785 4.785 0 0024 12.572"
     id="path4"
     style="fill:#005571;fill-opacity:1" />
  <metadata
     id="metadata827">
    <rdf:RDF>
      <cc:Work
         rdf:about="">
        <dc:title>Elastic</dc:title>
      </cc:Work>
    </rdf:RDF>
  </metadata>
</svg>
