<?xml version="1.0" encoding="UTF-8" standalone="no"?>
<svg
   width="45"
   height="45"
   viewBox="0 0 45 45"
   version="1.1"
   id="svg20"
   sodipodi:docname="kit.svg"
   inkscape:version="1.2.1 (0f2f062aeb, 2022-09-21, custom)"
   xmlns:inkscape="http://www.inkscape.org/namespaces/inkscape"
   xmlns:sodipodi="http://sodipodi.sourceforge.net/DTD/sodipodi-0.dtd"
   xmlns="http://www.w3.org/2000/svg"
   xmlns:svg="http://www.w3.org/2000/svg">
  <defs
     id="defs24" />
  <sodipodi:namedview
     id="namedview22"
     pagecolor="#ffffff"
     bordercolor="#000000"
     borderopacity="0.25"
     inkscape:showpageshadow="2"
     inkscape:pageopacity="0.0"
     inkscape:pagecheckerboard="0"
     inkscape:deskcolor="#d1d1d1"
     showgrid="false"
     inkscape:zoom="10.865874"
     inkscape:cx="11.687969"
     inkscape:cy="3.4051563"
     inkscape:window-width="2192"
     inkscape:window-height="1154"
     inkscape:window-x="0"
     inkscape:window-y="0"
     inkscape:window-maximized="1"
     inkscape:current-layer="svg20" />
  <path
     d="m 6.5615,21.811982 -4.562,4.514 v -10.038 a 0.995,0.995 0 0 0 -1,-0.988 0.993,0.993 0 0 0 -0.999,0.988 v 12.42 a 0.99,0.99 0 0 0 0.998,0.986 1,1 0 0 0 0.707,-0.287 l 5.575,-5.51 5.577,5.512 a 1.003,1.003 0 0 0 1.413,0 0.978,0.978 0 0 0 0,-1.398 l -5.575,-5.51 5.574,-5.511 a 0.978,0.978 0 0 0 0,-1.398 1.008,1.008 0 0 0 -1.413,0 l -6.27,6.202 c -0.005,0 -0.009,0.004 -0.012,0.008 l -0.013,0.012 z m 16.55,7.886 a 0.993,0.993 0 0 1 -1,-0.987 v -12.421 a 0.994,0.994 0 0 1 1,-0.989 c 0.55,0 0.999,0.443 0.999,0.989 v 12.42 a 0.993,0.993 0 0 1 -1,0.987 z m 13.606,-12.419 v 11.432 c 0,0.545 0.446,0.987 0.998,0.987 0.55,0 1,-0.44 1,-0.987 v -11.432 h 5.282 a 0.995,0.995 0 0 0 1.002,-0.988 0.995,0.995 0 0 0 -1,-0.989 h -12.566 a 0.995,0.995 0 0 0 -0.998,0.989 c 0,0.545 0.447,0.988 0.999,0.988 h 5.285 -10e-4 z"
     id="path18" />
</svg>
