<?xml version="1.0" encoding="UTF-8" standalone="no"?>
<svg
   role="img"
   viewBox="0 0 24 24"
   version="1.1"
   id="svg6"
   sodipodi:docname="ubiquiti.svg"
   inkscape:version="1.1.2 (08b2f3d93c, 2022-04-05)"
   xmlns:inkscape="http://www.inkscape.org/namespaces/inkscape"
   xmlns:sodipodi="http://sodipodi.sourceforge.net/DTD/sodipodi-0.dtd"
   xmlns="http://www.w3.org/2000/svg"
   xmlns:svg="http://www.w3.org/2000/svg"
   xmlns:rdf="http://www.w3.org/1999/02/22-rdf-syntax-ns#"
   xmlns:cc="http://creativecommons.org/ns#"
   xmlns:dc="http://purl.org/dc/elements/1.1/">
  <defs
     id="defs10" />
  <sodipodi:namedview
     id="namedview8"
     pagecolor="#ffffff"
     bordercolor="#666666"
     borderopacity="1.0"
     inkscape:pageshadow="2"
     inkscape:pageopacity="0.0"
     inkscape:pagecheckerboard="0"
     showgrid="false"
     inkscape:zoom="29.958333"
     inkscape:cx="11.98331"
     inkscape:cy="12"
     inkscape:window-width="2192"
     inkscape:window-height="1154"
     inkscape:window-x="1920"
     inkscape:window-y="0"
     inkscape:window-maximized="1"
     inkscape:current-layer="svg6" />
  <title
     id="title2">Ubiquiti</title>
  <path
     d="M5.331 3.987H4.012v-1.32h1.32zm7.605 16.001c-1.78-.08-3.15-.532-4.21-1.185.718 3.118 3.405 4.65 3.535 4.723l.792.437c6.063-.405 9.611-4.318 9.611-9.436v-1.109c-1.441 4.7-4.795 6.793-9.728 6.57M4.006 9.605h1.332v2.94h1.336V7.627H8.01v9.612C8.009 21.8 12 24 12 24c-6.705 0-10.664-4.065-10.664-9.473V3.65H2.67v7.274h1.336zM2.67 1.334H1.336V0H2.67zm2.661 6.953h-1.32v-1.32h1.32zm1.334-1.98h-1.32v-1.32h1.32zm1.343-1.66H6.674v-1.32h1.335zM6.674 2.654H5.338v-1.32h1.336zM22.147 13.26l.517-1.688V.015c-6.045 0-6.674 2.317-6.674 4.531V17.24c0 .657-.064 1.354-.197 2.037 3.205-.583 5.296-2.565 6.354-6.016Z"
     id="path4"
     style="fill:#0559c9;fill-opacity:1" />
  <metadata
     id="metadata827">
    <rdf:RDF>
      <cc:Work
         rdf:about="">
        <dc:title>Ubiquiti</dc:title>
      </cc:Work>
    </rdf:RDF>
  </metadata>
</svg>
